<?xml version="1.0" encoding="utf-8"?>
<!-- Generator: Adobe Illustrator 23.0.1, SVG Export Plug-In . SVG Version: 6.00 Build 0)  -->
<svg version="1.1" id="Layer_1" xmlns="http://www.w3.org/2000/svg" xmlns:xlink="http://www.w3.org/1999/xlink" x="0px" y="0px"
	 viewBox="0 0 30 30" style="enable-background:new 0 0 30 30;" xml:space="preserve">
<style type="text/css">
	.st0{fill:none;stroke:#FFFFFF;stroke-width:0.8;stroke-miterlimit:10;}
</style>
<g id="IC_catalogo" transform="translate(-329.6 -670.6)">
	<g id="Group_103" transform="translate(330 671)">
		<path id="Path_204" class="st0" d="M22.7,28.2H6.5c-0.8,0-1.5-0.6-1.5-1.5c0,0,0,0,0-0.1L5.6,8.5c0-0.8,0.7-1.4,1.5-1.4h15
			c0.8,0,1.5,0.6,1.5,1.4l0.7,18.1C24.3,27.5,23.6,28.1,22.7,28.2C22.8,28.2,22.8,28.2,22.7,28.2z"/>
		<path id="Path_205" class="st0" d="M9.9,10.4V5.7C9.9,3.1,12,1,14.6,1s4.7,2.1,4.7,4.7v4.7"/>
	</g>
</g>
</svg>
