<?xml version="1.0" encoding="utf-8"?>
<!-- Generator: Adobe Illustrator 23.0.1, SVG Export Plug-In . SVG Version: 6.00 Build 0)  -->
<svg version="1.1" id="Layer_1" xmlns="http://www.w3.org/2000/svg" xmlns:xlink="http://www.w3.org/1999/xlink" x="0px" y="0px"
	 viewBox="0 0 30 30" style="enable-background:new 0 0 30 30;" xml:space="preserve">
<style type="text/css">
	.st0{opacity:0.849;}
	.st1{fill:none;stroke:#FFFFFF;stroke-width:0.5;stroke-miterlimit:10;}
</style>
<g id="IC_mapa" transform="translate(-330.25 -57.444)">
	<g id="Group_99" transform="translate(329.503 56.694)" class="st0">
		<path id="Path_84" class="st1" d="M15.8,1.7c3.4-0.1,6.6,1.6,8.4,4.5c1.7,2.5,2.2,5.7,1.3,8.6c-0.6,2-1.5,3.9-2.5,5.7
			c-1.8,3.1-3.9,6-6.3,8.7c-0.2,0.2-0.5,0.4-0.7,0.6h-0.4c-0.2-0.2-0.5-0.3-0.7-0.5c-2.4-2.7-4.5-5.7-6.4-8.8
			c-1.1-1.8-1.9-3.7-2.5-5.7c-0.7-2.3-0.6-4.7,0.4-6.8C8,4.2,11.7,1.8,15.8,1.7z M15.7,17c2.8,0,5.2-2.2,5.2-5.1
			c0-2.8-2.2-5.2-5.1-5.2c-2.8,0-5.1,2.2-5.2,5C10.6,14.6,12.8,17,15.7,17C15.7,17,15.7,17,15.7,17z"/>
	</g>
</g>
</svg>
