<?xml version="1.0" ?><svg data-name="Layer 1" id="Layer_1" viewBox="0 0 100 100" xmlns="http://www.w3.org/2000/svg"><title/><path d="M49.75,43.27A2.46,2.46,0,0,1,48,42.55l-6-6a2.47,2.47,0,0,1,0-3.49l6-6a2.47,2.47,0,0,1,3.49,0l6,6a2.47,2.47,0,0,1,0,3.49l-6,6A2.46,2.46,0,0,1,49.75,43.27Zm0-14.91a.47.47,0,0,0-.33.14l-6,6a.47.47,0,0,0,0,.66l6,6a.47.47,0,0,0,.66,0l6-6a.47.47,0,0,0,0-.66l-6-6A.47.47,0,0,0,49.75,28.36Z"/><path d="M47.75,37.75a1,1,0,0,1-1-1v-3a1,1,0,0,1,2,0v3A1,1,0,0,1,47.75,37.75Z"/><path d="M51.75,37.75a1,1,0,0,1-1-1v-3a1,1,0,0,1,2,0v3A1,1,0,0,1,51.75,37.75Z"/><path d="M65.25,81.75h-9v-7h9Zm-7-2h5v-3h-5Z"/><path d="M57.18,13.78a7.49,7.49,0,0,0-14.86,0,20,20,0,0,0-19.07,20V85.2a7.56,7.56,0,0,0,7.55,7.55H68.7a7.56,7.56,0,0,0,7.55-7.55V33.7A20,20,0,0,0,57.18,13.78ZM49.75,9.25a5.5,5.5,0,0,1,5.4,4.5H44.35A5.5,5.5,0,0,1,49.75,9.25ZM29,90.46a5.54,5.54,0,0,1-3.8-5.26v-7H29Zm5-27.21V66h2V63.25H67.25v20.5h-35V63.25Zm-1.75-2v-4.5h35v4.5Zm.8,24.5v5H31v-5Zm1.9,0H37v5H35Zm4,0H41v5H39Zm4,0H45v5H43Zm4,0H49v5H47Zm4,0H53v5H51Zm4,0H57v5H55Zm4,0H61v5H59Zm4,0H65v5H63Zm4,5v-5H69v5a2.05,2.05,0,0,1-.35,0Zm7.3-5.55A5.55,5.55,0,0,1,71,90.27v-12h3.3Zm0-9h-5V54.75h-39v21.5h-5V33.77a18,18,0,0,1,18-18H56.3a18,18,0,0,1,18,18Z"/></svg>