<?xml version="1.0" ?><svg data-name="Layer 1" id="Layer_1" viewBox="0 0 100 100" xmlns="http://www.w3.org/2000/svg"><title/><path d="M57.18,13.78a7.49,7.49,0,0,0-14.86,0,20,20,0,0,0-19.07,20V85.2a7.56,7.56,0,0,0,7.55,7.55H68.7a7.56,7.56,0,0,0,7.55-7.55V33.7A20,20,0,0,0,57.18,13.78ZM49.75,9.25a5.5,5.5,0,0,1,5.4,4.5H44.35A5.5,5.5,0,0,1,49.75,9.25ZM25.25,33.77a18,18,0,0,1,18-18H56.3a18,18,0,0,1,18,18V59.25h-5v-4.5h-39v4.5h-5Zm49,29.73h-5V61.25h5Zm0,4.25h-5V65.5h5Zm0,4.25h-5V69.75h5ZM36,66V63.25H67.25v20.5h-35V63.25H34V66Zm-3.75-4.75v-4.5h35v4.5Zm-7,0h5V63.5h-5Zm0,4.25h5v2.25h-5Zm0,4.25h5V72h-5Zm0,4.25h5v2.25h-5Zm49,11.2a5.56,5.56,0,0,1-5.55,5.55H30.8a5.56,5.56,0,0,1-5.55-5.55v-7h5v7.5h39v-7.5h5Zm0-9h-5V74h5Z"/><path d="M49.75,43.27A2.46,2.46,0,0,1,48,42.55l-6-6a2.47,2.47,0,0,1,0-3.49l6-6a2.47,2.47,0,0,1,3.49,0l6,6a2.47,2.47,0,0,1,0,3.49l-6,6A2.46,2.46,0,0,1,49.75,43.27Zm0-14.91a.47.47,0,0,0-.33.14l-6,6a.47.47,0,0,0,0,.66l6,6a.47.47,0,0,0,.66,0l6-6a.47.47,0,0,0,0-.66l-6-6A.47.47,0,0,0,49.75,28.36Z"/><path d="M47.75,37.75a1,1,0,0,1-1-1v-3a1,1,0,0,1,2,0v3A1,1,0,0,1,47.75,37.75Z"/><path d="M51.75,37.75a1,1,0,0,1-1-1v-3a1,1,0,0,1,2,0v3A1,1,0,0,1,51.75,37.75Z"/><path d="M65.25,81.75h-9v-7h9Zm-7-2h5v-3h-5Z"/></svg>