<?xml version="1.0" ?><!DOCTYPE svg  PUBLIC '-//W3C//DTD SVG 1.1//EN'  'http://www.w3.org/Graphics/SVG/1.1/DTD/svg11.dtd'><svg enable-background="new 0 0 512 512" height="512px" id="High_x5F_heel" version="1.1" viewBox="0 0 512 512" width="512px" xml:space="preserve" xmlns="http://www.w3.org/2000/svg" xmlns:xlink="http://www.w3.org/1999/xlink"><path d="M85.491,421.623L66.665,223.444c-0.038-0.402-0.196-0.781-0.456-1.094  c-24.248-29.097-30.425-59.717-18.358-91.005c5.719-14.83,14.348-26.355,20.579-33.412l3.939-4.461l3.715,4.648  c61.85,77.397,113.594,136.968,153.794,177.058l0.146,0.151c29.471,31.97,49.536,48.607,67.096,55.631  c1.054,0.422,2.174,0.824,3.524,1.269l0.241,0.079l0.232,0.104c5.188,2.311,9.668,3.481,13.315,3.481  c2.058,0,3.909-0.344,5.505-1.022l0.653-0.277l0.706-0.086c22.189-2.666,36.301-21.762,42.737-32.906l2.628-4.55l8.364,5.407  c20.359,13.195,58.234,37.743,79.809,44.658c9.407,3.016,15.645,12.011,15.168,21.876l-0.061,1.263l-27.46,45.438l-2.628,0.153  c-13.187,0.765-59.327,3.262-99.421,3.262c-13.821,0-25.713-0.297-35.345-0.881c-27.845-1.688-54.972-29.104-72.565-73.341  c-45.376-114.086-107.429-122.953-125.366-122.953c-2.685,0-4.199,0.208-4.262,0.217c-0.984,0.138-1.725,0.989-1.725,1.981v197.49  H85.491z" fill="#F2EAE2"/><path d="M314.434,331.894c-8.474,0-26.61-7.506-64.892-43.263c-41.559-38.818-97.907-102.553-167.48-189.435  l-8.966-11.197l13.983,3.197c24.225,5.539,86.85,42.983,234.091,231.521l2.168,2.776l-1.884,2.976  C319.287,331.894,315.634,331.894,314.434,331.894z" fill="#AAA199"/><path d="M457.583,338.547c-20.436-6.551-59.086-31.602-77.66-43.641c-4.938-3.199-8.505-5.512-10.66-6.805  c-1.732-1.039-3.83-1.279-5.75-0.66c-1.923,0.62-3.483,2.04-4.281,3.895c-0.118,0.275-9.701,22.027-27.773,30.839  c-0.243-0.88-0.636-1.718-1.205-2.447c-71.696-91.991-131.434-158.61-177.554-198.007c-31.339-26.77-55.614-40.344-72.151-40.344  c-7.409,0-11.229,2.786-12.654,4.148c-1.608,1.464-18.521,17.259-28.237,42.061c-9.224,23.544-13.425,59.667,18.251,98.837  l18.797,197.862c0.342,3.594,3.359,6.338,6.969,6.338h19.499c3.866,0,7-3.134,7-7V231.031c8.323,0.514,24.669,3.422,43.813,16.783  c27.78,19.39,51.391,53.169,70.176,100.399c19.199,48.272,48.498,77.065,80.384,78.999c9.814,0.594,21.89,0.896,35.89,0.896  c47.405,0,103.102-3.465,103.658-3.499c2.291-0.144,4.365-1.401,5.553-3.366l28.179-46.629c0.503-0.834,0.827-1.762,0.951-2.728  C480.676,357.114,471.763,343.092,457.583,338.547z M465.01,368.752l-25.444,42.104c-13.11,0.761-59.126,3.254-99.131,3.254  c-13.719,0-25.509-0.293-35.042-0.871c-25.859-1.567-51.363-27.81-68.222-70.198c-46.54-117.012-111.279-126.105-130.013-126.105  c-2.911,0-4.639,0.221-4.956,0.266c-3.457,0.483-6.03,3.44-6.03,6.933v192.49h-6.133L71.643,222.972  c-0.134-1.404-0.688-2.735-1.591-3.819c-23.001-27.602-28.901-56.538-17.536-86.008c5.592-14.5,14.191-25.706,19.662-31.901  c62.055,77.653,113.789,137.207,154.17,177.476c27.492,29.824,49.032,48.932,68.915,56.885c1.274,0.51,2.548,0.957,3.821,1.376  c5.859,2.609,10.969,3.914,15.35,3.914c2.896,0,5.365-0.53,7.461-1.421c24.574-2.953,39.891-23.977,46.471-35.371  c1.211,0.782,2.531,1.639,3.943,2.553c20.546,13.316,58.789,38.104,81.001,45.225C460.625,354.224,465.375,361.186,465.01,368.752z   M317.229,325.795c-0.695,1.099-1.949,1.099-2.796,1.099c-4.992,0-20.976-4.085-61.479-41.917  c-41.407-38.676-97.562-102.204-166.99-188.906C106.386,100.74,167.114,133.577,317.229,325.795z" fill="#5A5954"/></svg>