<svg xmlns="http://www.w3.org/2000/svg" viewBox="0 0 218.34 66.361">
  <defs>
    <style>
      .cls-1, .cls-2 {
        fill: #fff;
      }

      .cls-2 {
        font-size: 16.57px;
        font-family: Montserrat-Light, Montserrat;
        font-weight: 300;
      }
    </style>
  </defs>
  <g id="LG_GD_WHT_CENTER" transform="translate(-78.23 -373.04)">
    <g id="Group_19" data-name="Group 19" transform="translate(-117.5 52)">
      <g id="Group_14" data-name="Group 14">
        <path id="Path_12" data-name="Path 12" class="cls-1" d="M259.7,359.29H245.2v-.71l1.45-.06c2.4-.1,2.96-.41,2.96-8V330.56c0-7.6-.56-7.91-2.96-8l-1.45-.06v-.72h14.5v.72l-1.45.07c-2.4.1-2.97.41-2.97,8v19.96c0,7.59.56,7.91,2.97,8l1.45.06Z"/>
      </g>
      <g id="Group_15" data-name="Group 15">
        <path id="Path_13" data-name="Path 13" class="cls-1" d="M293.29,360c-12.31,0-18.74-9.82-18.74-19.53a20.307,20.307,0,0,1,4.85-13.52,19.266,19.266,0,0,1,27.77,0,20.314,20.314,0,0,1,4.86,13.52C312.02,350.17,305.58,360,293.29,360Zm-.01-38.17c-10.8,0-12.4,11.72-12.4,18.69,0,6.99,1.61,18.7,12.4,18.7s12.4-11.72,12.39-18.7C305.68,333.54,304.07,321.83,293.28,321.83Z"/>
      </g>
      <g id="Group_16" data-name="Group 16">
        <path id="Path_14" data-name="Path 14" class="cls-1" d="M363.12,359.77h-1.66l-.09-.1-28.79-33.58v19.74c0,4.99,1.76,12.47,5.54,12.67l1.45.06v.71H326.86v-.7l.88-.08c2.61-.24,3.59-3.68,3.59-12.67v-15.3c0-7.54-.71-7.9-3.18-8l-1.29-.07v-.71h9.64l.08.11,25.28,30.04V335.18c0-4.99-1.76-12.46-5.54-12.66l-1.45-.06v-.72h12.71v.7l-.88.08c-2.62.24-3.59,3.67-3.59,12.66Z"/>
      </g>
      <g id="Group_17" data-name="Group 17">
        <path id="Path_15" data-name="Path 15" class="cls-1" d="M414.07,359.27H381.66v-.71l1.45-.06c2.4-.1,2.98-.41,2.98-8V330.54c0-7.6-.58-7.91-2.98-8l-1.45-.06v-.72h31.29v10.49h-.66l-.68-2.06c-2.35-7.09-6.27-7.65-11.13-7.65h-6.4c-2.08,0-2.34.3-2.34,8v9.1h6.22c2.81,0,5.44-.37,6.65-4.73l.4-1.41h.68v13.07h-.68l-.4-1.41c-1.22-4.37-3.84-4.73-6.65-4.73h-6.22v10.09c0,7.71.27,8,2.34,8h7.51c5.01,0,8.26-.63,11.12-9.3l.69-2.06h.67Z"/>
      </g>
      <g id="Group_18" data-name="Group 18">
        <path id="Path_16" data-name="Path 16" class="cls-1" d="M210.15,359.3H195.74v-1.22h14.35c8.04,0,12.85-6.56,12.85-17.55,0-10.65-5.05-17.53-12.86-17.53H195.73v-1.23h14.35c5.92,0,10.86,1.91,14.29,5.52a18.921,18.921,0,0,1,4.9,13.19C229.28,351.56,221.41,359.3,210.15,359.3Z"/>
      </g>
    </g>
    <text id="REWARDS" class="cls-2" transform="translate(208.143 435.401)"><tspan x="0" y="0">REWARDS</tspan></text>
  </g>
</svg>
