<svg xmlns="http://www.w3.org/2000/svg" viewBox="0 0 140.678 43.169">
  <defs>
    <style>
      .cls-1, .cls-2 {
        fill: #22222a;
      }

      .cls-2 {
        font-size: 10.67px;
        font-family: Montserrat-Light, Montserrat;
        font-weight: 300;
      }
    </style>
  </defs>
  <g id="LG_GD_BLK_CENTER" transform="translate(-117.119 -90.01)">
    <g id="Group_48" data-name="Group 48">
      <g id="Group_43" data-name="Group 43">
        <path id="Path_32" data-name="Path 32" class="cls-1" d="M158.32,114.65h-9.34v-.46l.94-.04c1.55-.06,1.91-.26,1.91-5.16V96.13c0-4.89-.36-5.09-1.91-5.16l-.94-.04v-.46h9.34v.46l-.93.04c-1.55.06-1.91.26-1.91,5.16v12.86c0,4.89.36,5.09,1.91,5.16l.93.04Z"/>
      </g>
      <g id="Group_44" data-name="Group 44">
        <path id="Path_33" data-name="Path 33" class="cls-1" d="M179.95,115.11c-7.93,0-12.07-6.33-12.07-12.58A13.078,13.078,0,0,1,171,93.82a12.417,12.417,0,0,1,17.89-.01,13.035,13.035,0,0,1,3.13,8.71C192.02,108.77,187.88,115.1,179.95,115.11Zm0-24.59c-6.96,0-7.99,7.55-7.99,12.04s1.03,12.05,7.99,12.05,7.98-7.55,7.98-12.05S186.9,90.51,179.95,90.52Z"/>
      </g>
      <g id="Group_45" data-name="Group 45">
        <path id="Path_34" data-name="Path 34" class="cls-1" d="M224.94,114.96h-1.07l-.06-.06L205.27,93.27v12.72c0,3.21,1.13,8.03,3.57,8.16l.93.04v.46h-8.19v-.45l.57-.05c1.68-.15,2.31-2.37,2.31-8.16V96.13c0-4.86-.46-5.09-2.05-5.16l-.83-.04v-.46h6.21l.05.07,16.28,19.35V99.13c0-3.22-1.14-8.03-3.57-8.16l-.94-.04v-.46h8.18v.45l-.56.05c-1.69.15-2.31,2.37-2.31,8.16Z"/>
      </g>
      <g id="Group_46" data-name="Group 46">
        <path id="Path_35" data-name="Path 35" class="cls-1" d="M257.76,114.64H236.88v-.46l.93-.04c1.55-.06,1.92-.26,1.92-5.16V96.12c0-4.89-.37-5.09-1.92-5.16l-.94-.04v-.46h20.15v6.76h-.43l-.44-1.32c-1.52-4.56-4.04-4.93-7.17-4.93h-4.12c-1.34,0-1.51.19-1.51,5.16v5.86h4.01c1.81,0,3.5-.24,4.29-3.05l.26-.91h.44v8.42h-.44l-.26-.91c-.78-2.82-2.47-3.05-4.29-3.05h-4.01v6.5c0,4.97.17,5.16,1.51,5.16h4.84c3.23,0,5.32-.4,7.16-5.99l.44-1.33h.43Z"/>
      </g>
      <g id="Group_47" data-name="Group 47">
        <path id="Path_36" data-name="Path 36" class="cls-1" d="M126.4,114.65h-9.28v-.79h9.25c5.18,0,8.28-4.22,8.28-11.3,0-6.86-3.25-11.29-8.28-11.29h-9.25v-.8h9.25a11.523,11.523,0,0,1,12.36,12.06C138.72,109.67,133.66,114.65,126.4,114.65Z"/>
      </g>
    </g>
    <text id="REWARDS" class="cls-2" transform="translate(200.798 130.179)"><tspan x="0" y="0">REWARDS</tspan></text>
  </g>
</svg>
